<svg width="20" height="20" viewBox="0 0 20 20" fill="none" xmlns="http://www.w3.org/2000/svg">
<path fill-rule="evenodd" clip-rule="evenodd" d="M1 9.99981C1 9.83405 1.06585 9.67508 1.18306 9.55787C1.30027 9.44066 1.45924 9.37481 1.625 9.37481H16.3663L12.4325 5.44231C12.3151 5.32495 12.2492 5.16578 12.2492 4.99981C12.2492 4.83384 12.3151 4.67467 12.4325 4.55731C12.5499 4.43995 12.709 4.37402 12.875 4.37402C13.041 4.37402 13.2001 4.43995 13.3175 4.55731L18.3175 9.55731C18.3757 9.61537 18.4219 9.68434 18.4534 9.76027C18.4849 9.8362 18.5011 9.9176 18.5011 9.99981C18.5011 10.082 18.4849 10.1634 18.4534 10.2394C18.4219 10.3153 18.3757 10.3843 18.3175 10.4423L13.3175 15.4423C13.2001 15.5597 13.041 15.6256 12.875 15.6256C12.709 15.6256 12.5499 15.5597 12.4325 15.4423C12.3151 15.325 12.2492 15.1658 12.2492 14.9998C12.2492 14.8338 12.3151 14.6747 12.4325 14.5573L16.3663 10.6248H1.625C1.45924 10.6248 1.30027 10.559 1.18306 10.4418C1.06585 10.3245 1 10.1656 1 9.99981V9.99981Z" fill="#545454"/>
</svg>
