<svg width="30" height="30" viewBox="0 0 30 30" fill="none" xmlns="http://www.w3.org/2000/svg">
<path d="M6.16074 4.82101C5.52138 4.82101 4.9082 5.075 4.45611 5.52709C4.00401 5.97919 3.75003 6.59236 3.75003 7.23172V18.4817C3.75003 19.1211 4.00401 19.7343 4.45611 20.1864C4.9082 20.6385 5.52138 20.8924 6.16074 20.8924H9.10717V26.031C9.10717 26.2485 9.3536 26.376 9.53145 26.2474L16.9543 20.8924H23.8393C24.4787 20.8924 25.0918 20.6385 25.5439 20.1864C25.996 19.7343 26.25 19.1211 26.25 18.4817V7.23172C26.25 6.59236 25.996 5.97919 25.5439 5.52709C25.0918 5.075 24.4787 4.82101 23.8393 4.82101H6.16074ZM2.14288 7.23172C2.14288 6.16612 2.56619 5.14416 3.31969 4.39067C4.07318 3.63718 5.09514 3.21387 6.16074 3.21387H23.8393C24.9049 3.21387 25.9269 3.63718 26.6804 4.39067C27.4339 5.14416 27.8572 6.16612 27.8572 7.23172V18.4817C27.8572 19.5473 27.4339 20.5693 26.6804 21.3228C25.9269 22.0763 24.9049 22.4996 23.8393 22.4996H17.474L10.4722 27.5514C9.23145 28.446 7.50003 27.5599 7.50003 26.0299V22.4996H6.16074C5.09514 22.4996 4.07318 22.0763 3.31969 21.3228C2.56619 20.5693 2.14288 19.5473 2.14288 18.4817V7.23172Z" fill="#111111"/>
</svg>
