<svg width="21" height="21" viewBox="0 0 21 21" fill="none" xmlns="http://www.w3.org/2000/svg">
<path d="M0.734375 1.22266V10.1094C0.734375 10.5415 1.0835 10.8906 1.51562 10.8906H3.10254V0.441406H1.51562C1.0835 0.441406 0.734375 0.790527 0.734375 1.22266ZM19.6284 9.97021C19.7163 9.67725 19.7603 9.37451 19.7603 9.06689C19.7603 8.37598 19.5332 7.71191 19.123 7.16992C19.2109 6.87695 19.2549 6.57422 19.2549 6.2666C19.2549 5.57568 19.0278 4.91162 18.6177 4.36963C18.7056 4.07666 18.7495 3.77393 18.7495 3.46631C18.7495 2.20654 18 1.07129 16.8379 0.575684C16.6336 0.487619 16.4134 0.442734 16.1909 0.443848H4.66504L4.67236 10.8931L6.76709 18.481C7.104 19.7041 8.22705 20.5586 9.49658 20.5586C10.2217 20.5586 10.8979 20.2705 11.3984 19.7432C11.8989 19.2183 12.1553 18.5298 12.1187 17.8047L11.9722 14.8042H17.8291C18.1245 14.8042 18.4126 14.7261 18.6665 14.5771C19.6528 14.0034 20.2656 12.9634 20.2656 11.8672C20.2656 11.1763 20.0386 10.5122 19.6284 9.97021V9.97021ZM17.8047 13.0488H10.1289L10.3633 17.8926C10.3779 18.1831 10.2485 18.4565 10.0068 18.6372C9.85791 18.7471 9.6748 18.8032 9.4917 18.8008C9.25777 18.7985 9.03088 18.7204 8.84511 18.5782C8.65934 18.436 8.52471 18.2374 8.46143 18.0122C7.55566 14.731 6.87695 12.27 6.42285 10.627V2.19922H16.1738C16.4179 2.30859 16.6251 2.48612 16.7706 2.71048C16.9162 2.93483 16.9938 3.19645 16.9941 3.46387C16.9941 3.70068 16.938 3.92529 16.8257 4.13037L16.4863 4.75049L17.021 5.21436C17.1715 5.3447 17.2921 5.50593 17.3747 5.68709C17.4573 5.86825 17.4998 6.06507 17.4995 6.26416C17.4995 6.50098 17.4434 6.72559 17.3311 6.93066L16.9917 7.55078L17.5264 8.01465C17.6769 8.14499 17.7975 8.30623 17.8801 8.48738C17.9626 8.66854 18.0052 8.86536 18.0049 9.06445C18.0049 9.30127 17.9487 9.52588 17.8364 9.73096L17.4946 10.3535L18.0293 10.8174C18.1798 10.9477 18.3004 11.109 18.383 11.2901C18.4656 11.4713 18.5081 11.6681 18.5078 11.8672C18.5078 12.3335 18.2393 12.7827 17.8047 13.0488V13.0488Z" fill="black"/>
</svg>
