<svg width="20" height="20" viewBox="0 0 25 25" fill="none" xmlns="http://www.w3.org/2000/svg">
<path d="M21.6284 13.0293C22.0386 12.4873 22.2656 11.8233 22.2656 11.1323C22.2656 10.0362 21.6528 8.99855 20.6665 8.41994C20.4126 8.271 20.1235 8.19262 19.8291 8.19289H13.9746L14.1211 5.1924C14.1553 4.4673 13.8989 3.77883 13.4009 3.25392C13.1565 2.9952 12.8616 2.78936 12.5345 2.6491C12.2073 2.50885 11.8549 2.43717 11.499 2.43849C10.2295 2.43849 9.10645 3.29299 8.76953 4.51613L6.67236 12.1089H3.51562C3.0835 12.1089 2.73438 12.458 2.73438 12.8902V21.7769C2.73438 22.209 3.0835 22.5581 3.51562 22.5581H18.1958C18.4204 22.5581 18.6401 22.5142 18.8428 22.4263C20.0049 21.9307 20.7544 20.7954 20.7544 19.5357C20.7544 19.228 20.7104 18.9253 20.6226 18.6323C21.0327 18.0903 21.2598 17.4263 21.2598 16.7354C21.2598 16.4278 21.2158 16.125 21.1279 15.832C21.5381 15.2901 21.7651 14.626 21.7651 13.9351C21.7603 13.6275 21.7163 13.3223 21.6284 13.0293V13.0293ZM4.49219 20.8003V13.8667H6.46973V20.8003H4.49219ZM20.0293 12.1821L19.4946 12.646L19.834 13.2661C19.9458 13.4704 20.0038 13.6998 20.0024 13.9326C20.0024 14.3355 19.8267 14.7188 19.5239 14.9824L18.9893 15.4463L19.3286 16.0664C19.4404 16.2707 19.4984 16.5001 19.4971 16.7329C19.4971 17.1358 19.3213 17.5191 19.0186 17.7827L18.4839 18.2466L18.8232 18.8667C18.935 19.071 18.993 19.3004 18.9917 19.5332C18.9917 20.0801 18.6694 20.5733 18.1714 20.7979H8.03223V13.7886L10.4614 4.98732C10.5241 4.76174 10.6585 4.56272 10.8444 4.42042C11.0304 4.27812 11.2576 4.2003 11.4917 4.19875C11.6772 4.19875 11.8604 4.25246 12.0068 4.36232C12.2485 4.54299 12.3779 4.81642 12.3633 5.10695L12.1289 9.9507H19.8047C20.2393 10.2168 20.5078 10.666 20.5078 11.1323C20.5078 11.5352 20.332 11.916 20.0293 12.1821Z" fill="black"/>
</svg>
