<svg width="25" height="25" viewBox="0 0 25 25" fill="none" xmlns="http://www.w3.org/2000/svg">
<path d="M6.66504 12.107V22.5562L6.67236 12.107H6.66504ZM19.8047 9.95125H12.1289L12.3633 5.1075C12.3779 4.81697 12.2485 4.54353 12.0068 4.36287C11.8579 4.25301 11.6748 4.19685 11.4917 4.1993C11.0132 4.20174 10.5908 4.52644 10.4614 4.98787C9.55566 8.26912 8.87695 10.7301 8.42285 12.3731V20.8009H18.1738C18.4179 20.6915 18.6251 20.514 18.7706 20.2896C18.9162 20.0652 18.9938 19.8036 18.9941 19.5362C18.9941 19.2994 18.938 19.0748 18.8257 18.8697L18.4863 18.2496L19.021 17.7857C19.1715 17.6554 19.2921 17.4941 19.3747 17.313C19.4573 17.1318 19.4998 16.935 19.4995 16.7359C19.4995 16.4991 19.4434 16.2745 19.3311 16.0694L18.9917 15.4493L19.5264 14.9854C19.6769 14.8551 19.7975 14.6938 19.8801 14.5127C19.9626 14.3315 20.0052 14.1347 20.0049 13.9356C20.0049 13.6988 19.9487 13.4742 19.8364 13.2691L19.4946 12.6466L20.0293 12.1827C20.1798 12.0524 20.3004 11.8911 20.383 11.71C20.4656 11.5288 20.5081 11.332 20.5078 11.1329C20.5078 10.6666 20.2393 10.2174 19.8047 9.95125V9.95125Z" fill="black" fill-opacity="0.15"/>
<path d="M2.73438 12.8907V21.7774C2.73438 22.2095 3.0835 22.5586 3.51562 22.5586H5.10254V12.1094H3.51562C3.0835 12.1094 2.73438 12.4585 2.73438 12.8907ZM21.6284 13.0298C22.0386 12.4878 22.2656 11.8238 22.2656 11.1328C22.2656 10.0366 21.6528 8.99661 20.6665 8.42288C20.4126 8.27394 20.1235 8.19555 19.8291 8.19583H13.9722L14.1187 5.19534C14.1553 4.47024 13.8989 3.78177 13.3984 3.25686C13.1542 2.99789 12.8594 2.79187 12.5322 2.6516C12.205 2.51133 11.8525 2.43979 11.4966 2.44143C10.2271 2.44143 9.104 3.29593 8.76709 4.51907L6.67236 12.107L6.66504 22.5562H18.1909C18.418 22.5562 18.6353 22.5122 18.8379 22.4243C20 21.9287 20.7495 20.7935 20.7495 19.5337C20.7495 19.2261 20.7056 18.9234 20.6177 18.6304C21.0278 18.0884 21.2549 17.4243 21.2549 16.7334C21.2549 16.4258 21.2109 16.1231 21.123 15.8301C21.5332 15.2881 21.7603 14.6241 21.7603 13.9331C21.7603 13.6255 21.7163 13.3228 21.6284 13.0298ZM20.0293 12.1826L19.4946 12.6465L19.8364 13.2691C19.9482 13.4733 20.0062 13.7027 20.0049 13.9356C20.0049 14.3384 19.8315 14.7217 19.5264 14.9854L18.9917 15.4492L19.3311 16.0694C19.4429 16.2736 19.5008 16.503 19.4995 16.7359C19.4995 17.1387 19.3262 17.522 19.021 17.7857L18.4863 18.2495L18.8257 18.8697C18.9375 19.0739 18.9955 19.3033 18.9941 19.5362C18.9941 20.083 18.6719 20.5762 18.1738 20.8008H8.42285V12.3731C8.87695 10.7324 9.55566 8.27151 10.4614 4.98782C10.5247 4.7626 10.6593 4.56398 10.8451 4.42179C11.0309 4.27961 11.2578 4.20151 11.4917 4.19925C11.6748 4.19681 11.8579 4.25296 12.0068 4.36282C12.2485 4.54348 12.3779 4.81692 12.3633 5.10745L12.1289 9.9512H19.8047C20.2393 10.2173 20.5078 10.6665 20.5078 11.1328C20.5078 11.5357 20.3345 11.919 20.0293 12.1826Z" fill="black"/>
</svg>
