<svg width="40" height="40" viewBox="0 0 40 40" fill="none" xmlns="http://www.w3.org/2000/svg">
<path d="M20 2.5C10.3359 2.5 2.5 10.3359 2.5 20C2.5 29.6641 10.3359 37.5 20 37.5C29.6641 37.5 37.5 29.6641 37.5 20C37.5 10.3359 29.6641 2.5 20 2.5ZM20 34.5312C11.9766 34.5312 5.46875 28.0234 5.46875 20C5.46875 11.9766 11.9766 5.46875 20 5.46875C28.0234 5.46875 34.5312 11.9766 34.5312 20C34.5312 28.0234 28.0234 34.5312 20 34.5312Z" fill="#545454"/>
<path d="M20 5.46875C11.9766 5.46875 5.46875 11.9766 5.46875 20C5.46875 28.0234 11.9766 34.5312 20 34.5312C28.0234 34.5312 34.5312 28.0234 34.5312 20C34.5312 11.9766 28.0234 5.46875 20 5.46875ZM27.5 20.9375C27.5 21.1094 27.3594 21.25 27.1875 21.25H21.25V27.1875C21.25 27.3594 21.1094 27.5 20.9375 27.5H19.0625C18.8906 27.5 18.75 27.3594 18.75 27.1875V21.25H12.8125C12.6406 21.25 12.5 21.1094 12.5 20.9375V19.0625C12.5 18.8906 12.6406 18.75 12.8125 18.75H18.75V12.8125C18.75 12.6406 18.8906 12.5 19.0625 12.5H20.9375C21.1094 12.5 21.25 12.6406 21.25 12.8125V18.75H27.1875C27.3594 18.75 27.5 18.8906 27.5 19.0625V20.9375Z" fill="#F4F278"/>
<path d="M27.1875 18.75H21.25V12.8125C21.25 12.6406 21.1094 12.5 20.9375 12.5H19.0625C18.8906 12.5 18.75 12.6406 18.75 12.8125V18.75H12.8125C12.6406 18.75 12.5 18.8906 12.5 19.0625V20.9375C12.5 21.1094 12.6406 21.25 12.8125 21.25H18.75V27.1875C18.75 27.3594 18.8906 27.5 19.0625 27.5H20.9375C21.1094 27.5 21.25 27.3594 21.25 27.1875V21.25H27.1875C27.3594 21.25 27.5 21.1094 27.5 20.9375V19.0625C27.5 18.8906 27.3594 18.75 27.1875 18.75Z" fill="#545454"/>
</svg>
