<svg width="16" height="16" viewBox="0 0 16 16" fill="none" xmlns="http://www.w3.org/2000/svg">
<path d="M15.1875 6.75H9.25V0.8125C9.25 0.640625 9.10938 0.5 8.9375 0.5H7.0625C6.89062 0.5 6.75 0.640625 6.75 0.8125V6.75H0.8125C0.640625 6.75 0.5 6.89062 0.5 7.0625V8.9375C0.5 9.10938 0.640625 9.25 0.8125 9.25H6.75V15.1875C6.75 15.3594 6.89062 15.5 7.0625 15.5H8.9375C9.10938 15.5 9.25 15.3594 9.25 15.1875V9.25H15.1875C15.3594 9.25 15.5 9.10938 15.5 8.9375V7.0625C15.5 6.89062 15.3594 6.75 15.1875 6.75Z" fill="#545454"/>
</svg>
