<svg width="20" height="20" viewBox="0 0 20 20" fill="none" xmlns="http://www.w3.org/2000/svg">
<path fill-rule="evenodd" clip-rule="evenodd" d="M6.17034 14.4648C9.02242 14.0482 10.9862 14.084 13.842 14.4794C14.0488 14.5094 14.2378 14.6132 14.3741 14.7716C14.5103 14.9301 14.5846 15.1325 14.5833 15.3415C14.5833 15.5415 14.5145 15.7357 14.3903 15.8873C14.1739 16.1517 13.9522 16.4118 13.7253 16.6673H14.8258C14.8949 16.5848 14.9645 16.5007 15.0349 16.4152C15.2821 16.1122 15.4169 15.733 15.4166 15.3419C15.4166 14.4982 14.8008 13.7711 13.9562 13.6544C11.0328 13.2498 8.9895 13.2111 6.04992 13.6407C5.19659 13.7652 4.58325 14.5036 4.58325 15.3532C4.58325 15.7302 4.70617 16.1032 4.93909 16.4052C5.00784 16.4944 5.07575 16.5819 5.14325 16.6677H6.217C6.00593 16.415 5.80005 16.158 5.5995 15.8969C5.48032 15.7406 5.41603 15.5493 5.41659 15.3527C5.41659 14.904 5.73909 14.5277 6.17034 14.4648ZM9.99992 10.4173C10.3282 10.4173 10.6533 10.3527 10.9566 10.227C11.2599 10.1014 11.5355 9.91723 11.7677 9.68508C11.9998 9.45294 12.184 9.17734 12.3096 8.87403C12.4353 8.57071 12.4999 8.24562 12.4999 7.91732C12.4999 7.58901 12.4353 7.26392 12.3096 6.96061C12.184 6.6573 11.9998 6.3817 11.7677 6.14955C11.5355 5.9174 11.2599 5.73326 10.9566 5.60762C10.6533 5.48198 10.3282 5.41732 9.99992 5.41732C9.33688 5.41732 8.70099 5.68071 8.23215 6.14955C7.76331 6.61839 7.49992 7.25428 7.49992 7.91732C7.49992 8.58036 7.76331 9.21624 8.23215 9.68508C8.70099 10.1539 9.33688 10.4173 9.99992 10.4173V10.4173ZM9.99992 11.2507C10.884 11.2507 11.7318 10.8995 12.3569 10.2743C12.9821 9.64922 13.3333 8.80137 13.3333 7.91732C13.3333 7.03326 12.9821 6.18542 12.3569 5.56029C11.7318 4.93517 10.884 4.58398 9.99992 4.58398C9.11586 4.58398 8.26802 4.93517 7.6429 5.56029C7.01777 6.18542 6.66659 7.03326 6.66659 7.91732C6.66659 8.80137 7.01777 9.64922 7.6429 10.2743C8.26802 10.8995 9.11586 11.2507 9.99992 11.2507V11.2507Z" fill="#545454"/>
<path fill-rule="evenodd" clip-rule="evenodd" d="M9.99996 17.5003C14.142 17.5003 17.5 14.1424 17.5 10.0003C17.5 5.85824 14.142 2.50033 9.99996 2.50033C5.85788 2.50033 2.49996 5.85824 2.49996 10.0003C2.49996 14.1424 5.85788 17.5003 9.99996 17.5003ZM9.99996 18.3337C14.6025 18.3337 18.3333 14.6028 18.3333 10.0003C18.3333 5.39783 14.6025 1.66699 9.99996 1.66699C5.39746 1.66699 1.66663 5.39783 1.66663 10.0003C1.66663 14.6028 5.39746 18.3337 9.99996 18.3337Z" fill="#545454"/>
</svg>
