<svg width="20" height="20" viewBox="0 0 20 20" fill="none" xmlns="http://www.w3.org/2000/svg">
<path fill-rule="evenodd" clip-rule="evenodd" d="M9.99996 17.5003C14.142 17.5003 17.5 14.1424 17.5 10.0003C17.5 5.85824 14.142 2.50033 9.99996 2.50033C5.85788 2.50033 2.49996 5.85824 2.49996 10.0003C2.49996 14.1424 5.85788 17.5003 9.99996 17.5003ZM9.99996 18.3337C14.6025 18.3337 18.3333 14.6028 18.3333 10.0003C18.3333 5.39783 14.6025 1.66699 9.99996 1.66699C5.39746 1.66699 1.66663 5.39783 1.66663 10.0003C1.66663 14.6028 5.39746 18.3337 9.99996 18.3337Z" fill="#545454"/>
<path d="M5 14.8457C5 14.4153 5.32167 14.0516 5.75 14.0041C8.96458 13.6482 11.05 13.6803 14.2575 14.012C14.4177 14.0288 14.5695 14.0919 14.6944 14.1936C14.8193 14.2953 14.9119 14.4311 14.9608 14.5845C15.0098 14.738 15.013 14.9023 14.9701 15.0576C14.9272 15.2128 14.84 15.3522 14.7192 15.4587C10.9337 18.7582 8.77042 18.7128 5.26667 15.462C5.09583 15.3037 5 15.0787 5 14.8462V14.8457Z" fill="#545454"/>
<path fill-rule="evenodd" clip-rule="evenodd" d="M14.2145 14.427C11.0324 14.0978 8.977 14.067 5.79534 14.4191C5.69061 14.4313 5.59405 14.4817 5.52417 14.5607C5.45429 14.6396 5.41598 14.7416 5.41659 14.847C5.41659 14.9662 5.46617 15.0791 5.54992 15.1574C7.28659 16.7683 8.60242 17.4962 9.88867 17.5008C11.1795 17.5053 12.5662 16.7833 14.4453 15.1458C14.505 15.0926 14.548 15.0233 14.569 14.9462C14.5901 14.8691 14.5883 14.7875 14.5638 14.7114C14.5394 14.6353 14.4933 14.568 14.4313 14.5176C14.3693 14.4672 14.294 14.4358 14.2145 14.4274V14.427ZM5.70409 13.5908C8.95242 13.2312 11.0683 13.2637 14.3008 13.5983C14.5417 13.6234 14.7701 13.7183 14.958 13.8712C15.1459 14.0242 15.2851 14.2286 15.3586 14.4595C15.432 14.6903 15.4366 14.9376 15.3717 15.171C15.3069 15.4044 15.1753 15.6139 14.9933 15.7737C13.087 17.4353 11.4995 18.3403 9.88617 18.3341C8.26825 18.3283 6.75075 17.4078 4.98367 15.7683C4.85715 15.6504 4.75629 15.5077 4.6874 15.3492C4.6185 15.1906 4.58305 15.0195 4.58325 14.8466C4.58265 14.5359 4.69667 14.236 4.90349 14.0042C5.11031 13.7724 5.39537 13.625 5.70409 13.5903V13.5908Z" fill="#545454"/>
<path d="M13.3333 8.33333C13.3333 9.21739 12.9821 10.0652 12.357 10.6904C11.7319 11.3155 10.884 11.6667 9.99996 11.6667C9.1159 11.6667 8.26806 11.3155 7.64294 10.6904C7.01782 10.0652 6.66663 9.21739 6.66663 8.33333C6.66663 7.44928 7.01782 6.60143 7.64294 5.97631C8.26806 5.35119 9.1159 5 9.99996 5C10.884 5 11.7319 5.35119 12.357 5.97631C12.9821 6.60143 13.3333 7.44928 13.3333 8.33333V8.33333Z" fill="#545454"/>
<path fill-rule="evenodd" clip-rule="evenodd" d="M9.99996 10.8333C10.663 10.8333 11.2989 10.5699 11.7677 10.1011C12.2366 9.63226 12.5 8.99637 12.5 8.33333C12.5 7.67029 12.2366 7.03441 11.7677 6.56557C11.2989 6.09673 10.663 5.83333 9.99996 5.83333C9.33692 5.83333 8.70103 6.09673 8.23219 6.56557C7.76335 7.03441 7.49996 7.67029 7.49996 8.33333C7.49996 8.99637 7.76335 9.63226 8.23219 10.1011C8.70103 10.5699 9.33692 10.8333 9.99996 10.8333V10.8333ZM9.99996 11.6667C10.884 11.6667 11.7319 11.3155 12.357 10.6904C12.9821 10.0652 13.3333 9.21739 13.3333 8.33333C13.3333 7.44928 12.9821 6.60143 12.357 5.97631C11.7319 5.35119 10.884 5 9.99996 5C9.1159 5 8.26806 5.35119 7.64294 5.97631C7.01782 6.60143 6.66663 7.44928 6.66663 8.33333C6.66663 9.21739 7.01782 10.0652 7.64294 10.6904C8.26806 11.3155 9.1159 11.6667 9.99996 11.6667V11.6667Z" fill="#545454"/>
</svg>
