<svg width="30" height="30" viewBox="0 0 30 30" fill="none" xmlns="http://www.w3.org/2000/svg">
<path d="M15 2.5C8.09625 2.5 2.5 8.09625 2.5 15C2.5 21.9037 8.09625 27.5 15 27.5C21.9037 27.5 27.5 21.9037 27.5 15C27.5 8.09625 21.9037 2.5 15 2.5Z" stroke="black" stroke-width="1.875" stroke-linecap="round" stroke-linejoin="round"/>
<path d="M5.33887 22.9325C5.33887 22.9325 8.12512 19.375 15.0001 19.375C21.8751 19.375 24.6626 22.9325 24.6626 22.9325M15.0001 15C15.9947 15 16.9485 14.6049 17.6518 13.9017C18.355 13.1984 18.7501 12.2446 18.7501 11.25C18.7501 10.2554 18.355 9.30161 17.6518 8.59835C16.9485 7.89509 15.9947 7.5 15.0001 7.5C14.0056 7.5 13.0517 7.89509 12.3485 8.59835C11.6452 9.30161 11.2501 10.2554 11.2501 11.25C11.2501 12.2446 11.6452 13.1984 12.3485 13.9017C13.0517 14.6049 14.0056 15 15.0001 15V15Z" stroke="black" stroke-width="1.875" stroke-linecap="round" stroke-linejoin="round"/>
</svg>
