<svg width="23" height="20" viewBox="0 0 23 20" fill="none" xmlns="http://www.w3.org/2000/svg">
<path d="M0.75 18.1251V1.87513C0.75 1.4168 0.9375 1.06763 1.3125 0.827631C1.6875 0.588464 2.08333 0.552214 2.5 0.71888L21.75 8.84388C22.2708 9.07305 22.5312 9.45846 22.5312 10.0001C22.5312 10.5418 22.2708 10.9272 21.75 11.1564L2.5 19.2814C2.08333 19.448 1.6875 19.4114 1.3125 19.1714C0.9375 18.9322 0.75 18.5835 0.75 18.1251ZM3.25 16.2501L18.0625 10.0001L3.25 3.75013V8.12513L10.75 10.0001L3.25 11.8751V16.2501ZM3.25 10.0001V3.75013V16.2501V10.0001Z" fill="#111111"/>
</svg>
