<svg width="40" height="40" viewBox="0 0 40 40" fill="none" xmlns="http://www.w3.org/2000/svg">
<path d="M20.9833 21.6665L17.1499 25.4832C16.9937 25.6381 16.8697 25.8224 16.7851 26.0255C16.7005 26.2286 16.6569 26.4465 16.6569 26.6665C16.6569 26.8865 16.7005 27.1044 16.7851 27.3075C16.8697 27.5106 16.9937 27.6949 17.1499 27.8498C17.3049 28.0061 17.4892 28.13 17.6923 28.2147C17.8954 28.2993 18.1132 28.3428 18.3333 28.3428C18.5533 28.3428 18.7711 28.2993 18.9742 28.2147C19.1773 28.13 19.3616 28.0061 19.5166 27.8498L26.1833 21.1832C26.335 21.0247 26.4539 20.8378 26.5333 20.6332C26.6999 20.2274 26.6999 19.7723 26.5333 19.3665C26.4539 19.1619 26.335 18.975 26.1833 18.8165L19.5166 12.1498C19.3612 11.9944 19.1767 11.8712 18.9737 11.7871C18.7706 11.703 18.553 11.6597 18.3333 11.6597C18.1135 11.6597 17.8959 11.703 17.6928 11.7871C17.4898 11.8712 17.3053 11.9944 17.1499 12.1498C16.9945 12.3052 16.8713 12.4897 16.7872 12.6928C16.7031 12.8958 16.6598 13.1134 16.6598 13.3332C16.6598 13.5529 16.7031 13.7706 16.7872 13.9736C16.8713 14.1766 16.9945 14.3611 17.1499 14.5165L20.9833 18.3332H4.99992C4.55789 18.3332 4.13397 18.5088 3.82141 18.8213C3.50885 19.1339 3.33325 19.5578 3.33325 19.9998C3.33325 20.4419 3.50885 20.8658 3.82141 21.1784C4.13397 21.4909 4.55789 21.6665 4.99992 21.6665H20.9833ZM19.9999 3.33317C16.8851 3.31927 13.8287 4.17853 11.1774 5.81349C8.52607 7.44846 6.38601 9.79369 4.99992 12.5832C4.80101 12.981 4.76828 13.4415 4.90893 13.8635C5.04958 14.2855 5.35209 14.6343 5.74992 14.8332C6.14774 15.0321 6.60829 15.0648 7.03025 14.9242C7.45221 14.7835 7.80101 14.481 7.99992 14.0832C9.05357 11.9554 10.6563 10.1475 12.6425 8.84649C14.6287 7.54543 16.9263 6.79837 19.2978 6.68249C21.6694 6.56662 24.0289 7.08613 26.1324 8.18736C28.236 9.28858 30.0074 10.9316 31.2634 12.9465C32.5195 14.9614 33.2147 17.2753 33.2773 19.6488C33.3398 22.0224 32.7673 24.3696 31.6191 26.4479C30.4709 28.5261 28.7885 30.2601 26.7458 31.4705C24.7031 32.681 22.3743 33.324 19.9999 33.3332C17.5147 33.3439 15.0768 32.6538 12.9661 31.3419C10.8553 30.0301 9.15718 28.1497 8.06659 25.9165C7.86767 25.5187 7.51887 25.2162 7.09692 25.0755C6.67496 24.9349 6.21441 24.9676 5.81659 25.1665C5.41876 25.3654 5.11625 25.7142 4.9756 26.1362C4.83494 26.5581 4.86767 27.0187 5.06659 27.4165C6.38796 30.0757 8.39579 32.3336 10.8824 33.9566C13.369 35.5796 16.244 36.5088 19.2101 36.6482C22.1762 36.7875 25.1257 36.1318 27.7535 34.749C30.3813 33.3662 32.5919 31.3065 34.1567 28.7829C35.7215 26.2593 36.5837 23.3634 36.6541 20.3948C36.7245 17.4263 36.0005 14.4928 34.557 11.8979C33.1135 9.30296 31.003 7.14079 28.4437 5.63502C25.8844 4.12925 22.9693 3.33457 19.9999 3.33317V3.33317Z" fill="#545454"/>
</svg>
