<svg width="30" height="30" viewBox="0 0 30 30" fill="none" xmlns="http://www.w3.org/2000/svg">
<path d="M15.7375 16.2501L12.8625 19.1126C12.7453 19.2288 12.6523 19.3671 12.5889 19.5194C12.5254 19.6717 12.4928 19.8351 12.4928 20.0001C12.4928 20.1651 12.5254 20.3285 12.5889 20.4808C12.6523 20.6332 12.7453 20.7714 12.8625 20.8876C12.9787 21.0048 13.117 21.0978 13.2693 21.1612C13.4216 21.2247 13.585 21.2574 13.75 21.2574C13.915 21.2574 14.0784 21.2247 14.2307 21.1612C14.383 21.0978 14.5213 21.0048 14.6375 20.8876L19.6375 15.8876C19.7513 15.7687 19.8405 15.6286 19.9 15.4751C20.025 15.1708 20.025 14.8295 19.9 14.5251C19.8405 14.3717 19.7513 14.2315 19.6375 14.1126L14.6375 9.11262C14.521 8.99608 14.3826 8.90363 14.2303 8.84055C14.078 8.77747 13.9148 8.74501 13.75 8.74501C13.5852 8.74501 13.422 8.77747 13.2697 8.84055C13.1174 8.90363 12.979 8.99608 12.8625 9.11262C12.746 9.22917 12.6535 9.36754 12.5904 9.51981C12.5273 9.67209 12.4949 9.8353 12.4949 10.0001C12.4949 10.1649 12.5273 10.3282 12.5904 10.4804C12.6535 10.6327 12.746 10.7711 12.8625 10.8876L15.7375 13.7501H3.75C3.41848 13.7501 3.10054 13.8818 2.86612 14.1162C2.6317 14.3507 2.5 14.6686 2.5 15.0001C2.5 15.3316 2.6317 15.6496 2.86612 15.884C3.10054 16.1184 3.41848 16.2501 3.75 16.2501H15.7375ZM15 2.50012C12.6639 2.48969 10.3716 3.13414 8.38309 4.36036C6.39461 5.58659 4.78957 7.34551 3.75 9.43762C3.60082 9.73599 3.57627 10.0814 3.68176 10.3979C3.78725 10.7143 4.01413 10.9759 4.3125 11.1251C4.61087 11.2743 4.95628 11.2989 5.27275 11.1934C5.58921 11.0879 5.85082 10.861 6 10.5626C6.79024 8.96678 7.99229 7.6109 9.48194 6.63511C10.9716 5.65932 12.6948 5.09902 14.4734 5.01211C16.2521 4.92521 18.0217 5.31485 19.5994 6.14076C21.1771 6.96668 22.5056 8.19891 23.4476 9.71012C24.3897 11.2213 24.9111 12.9567 24.958 14.7369C25.0049 16.517 24.5756 18.2774 23.7144 19.8361C22.8532 21.3948 21.5914 22.6953 20.0594 23.6032C18.5274 24.511 16.7808 24.9933 15 25.0001C13.1361 25.0082 11.3077 24.4906 9.72461 23.5067C8.14154 22.5228 6.86794 21.1125 6.05 19.4376C5.90082 19.1393 5.63922 18.9124 5.32275 18.8069C5.00628 18.7014 4.66087 18.7259 4.3625 18.8751C4.06413 19.0243 3.83725 19.2859 3.73176 19.6024C3.62627 19.9188 3.65082 20.2643 3.8 20.5626C4.79103 22.557 6.2969 24.2504 8.16184 25.4677C10.0268 26.6849 12.1831 27.3819 14.4077 27.4864C16.6322 27.5908 18.8444 27.0991 20.8152 26.062C22.786 25.0249 24.444 23.4801 25.6176 21.5874C26.7912 19.6947 27.4378 17.5228 27.4906 15.2964C27.5434 13.07 27.0004 10.8699 25.9178 8.92366C24.8352 6.97746 23.2523 5.35583 21.3328 4.22651C19.4134 3.09718 17.227 2.50117 15 2.50012V2.50012Z" fill="black"/>
</svg>
